<?xml version="1.0" encoding="UTF-8" standalone="no"?>
<!-- Created with Inkscape (http://www.inkscape.org/) -->

<svg
   xmlns:dc="http://purl.org/dc/elements/1.1/"
   xmlns:cc="http://creativecommons.org/ns#"
   xmlns:rdf="http://www.w3.org/1999/02/22-rdf-syntax-ns#"
   xmlns:svg="http://www.w3.org/2000/svg"
   xmlns="http://www.w3.org/2000/svg"
   xmlns:sodipodi="http://sodipodi.sourceforge.net/DTD/sodipodi-0.dtd"
   xmlns:inkscape="http://www.inkscape.org/namespaces/inkscape"
   width="34.03125"
   height="34.0625"
   id="svg4004"
   version="1.1"
   inkscape:version="0.48.2 r9819"
   sodipodi:docname="button_settings_actions.svg"
   inkscape:export-filename="C:\Users\Philip Chinery\Documents\Projekte\PDFCreator_neuanfang\PDFCreator\Images\button_settings_actions.png"
   inkscape:export-xdpi="126.82569"
   inkscape:export-ydpi="126.82569">
  <defs
     id="defs4006" />
  <sodipodi:namedview
     id="base"
     pagecolor="#ffffff"
     bordercolor="#666666"
     borderopacity="1.0"
     inkscape:pageopacity="0.0"
     inkscape:pageshadow="2"
     inkscape:zoom="11.2"
     inkscape:cx="28.788105"
     inkscape:cy="13.47309"
     inkscape:document-units="px"
     inkscape:current-layer="layer1"
     showgrid="false"
     fit-margin-top="0"
     fit-margin-left="0"
     fit-margin-right="0"
     fit-margin-bottom="0"
     inkscape:window-width="1920"
     inkscape:window-height="1018"
     inkscape:window-x="-8"
     inkscape:window-y="-8"
     inkscape:window-maximized="1" />
  <metadata
     id="metadata4009">
    <rdf:RDF>
      <cc:Work
         rdf:about="">
        <dc:format>image/svg+xml</dc:format>
        <dc:type
           rdf:resource="http://purl.org/dc/dcmitype/StillImage" />
        <dc:title></dc:title>
      </cc:Work>
    </rdf:RDF>
  </metadata>
  <g
     inkscape:label="Ebene 1"
     inkscape:groupmode="layer"
     id="layer1"
     transform="translate(1159.8744,50.3941)">
    <g
       transform="translate(-1214.9158,-196.31585)"
       id="g75">
      <g
         id="g77">
        <circle
           d="m 88.584999,162.953 c 0,9.12817 -7.399838,16.528 -16.528,16.528 -9.128162,0 -16.528,-7.39983 -16.528,-16.528 0,-9.12816 7.399838,-16.528 16.528,-16.528 9.128162,0 16.528,7.39984 16.528,16.528 z"
           style="fill:none;stroke:#6b6b6a;stroke-miterlimit:10"
           sodipodi:ry="16.528"
           sodipodi:rx="16.528"
           sodipodi:cy="162.953"
           sodipodi:cx="72.056999"
           id="circle79"
           r="16.528"
           cy="162.953"
           cx="72.056999"
           stroke-miterlimit="10" />
        <circle
           d="m 83.993999,162.953 c 0,6.59263 -5.344377,11.937 -11.937,11.937 -6.592623,0 -11.937,-5.34437 -11.937,-11.937 0,-6.59262 5.344377,-11.937 11.937,-11.937 6.592623,0 11.937,5.34438 11.937,11.937 z"
           style="fill:#6b6b6a"
           sodipodi:ry="11.937"
           sodipodi:rx="11.937"
           sodipodi:cy="162.953"
           sodipodi:cx="72.056999"
           id="circle81"
           r="11.937"
           cy="162.953"
           cx="72.056999" />
      </g>
      <g
         id="g83">
        <g
           id="g85">
          <path
             style="fill:#fcfcfc"
             inkscape:connector-curvature="0"
             id="path87"
             d="m 70.727,171.066 10e-4,-6.823 -6.775,0.001 v -2.625 l 6.776,-0.001 0.001,-6.775 h 2.656 v 6.774 l 6.776,0 0,2.627 h -6.776 l 0,6.823 h -2.659 z" />
        </g>
        <g
           id="g89">
          <path
             style="fill:#fcfcfc"
             inkscape:connector-curvature="0"
             id="path91"
             d="m 76.854,169.632 -4.824,-4.826 -4.791,4.792 -1.856,-1.856 4.791,-4.792 -4.791,-4.792 1.878,-1.879 4.791,4.791 4.792,-4.792 1.857,1.857 -4.792,4.792 4.825,4.825 -1.88,1.88 z" />
        </g>
        <circle
           d="m 78.189002,162.94099 c 0,3.40484 -2.760164,6.165 -6.165,6.165 -3.404835,0 -6.165,-2.76016 -6.165,-6.165 0,-3.40483 2.760165,-6.165 6.165,-6.165 3.404836,0 6.165,2.76017 6.165,6.165 z"
           style="fill:#fcfcfc"
           sodipodi:ry="6.165"
           sodipodi:rx="6.165"
           sodipodi:cy="162.94099"
           sodipodi:cx="72.024002"
           id="circle93"
           r="6.165"
           cy="162.94099"
           cx="72.024002" />
        <circle
           d="m 76.107003,162.94099 c 0,2.25554 -1.828469,4.084 -4.084,4.084 -2.255531,0 -4.084,-1.82846 -4.084,-4.084 0,-2.25553 1.828469,-4.084 4.084,-4.084 2.255531,0 4.084,1.82847 4.084,4.084 z"
           style="fill:#6b6b6a"
           sodipodi:ry="4.0840001"
           sodipodi:rx="4.0840001"
           sodipodi:cy="162.94099"
           sodipodi:cx="72.023003"
           id="circle95"
           r="4.0840001"
           cy="162.94099"
           cx="72.023003" />
      </g>
    </g>
  </g>
</svg>
